<svg xmlns="http://www.w3.org/2000/svg" viewBox="0 0 512 512" width="512" height="512" role="img" aria-label="FleetBot">
<title>FleetBot</title>
<defs>
<linearGradient id="bg" x1="0" y1="0" x2="1" y2="1"><stop offset="0" stop-color="#326cec"/><stop offset="1" stop-color="#1c3d8d"/></linearGradient>
<radialGradient id="glow" cx="0.72" cy="0.42" r="0.55"><stop offset="0" stop-color="#fff" stop-opacity="0.2"/><stop offset="1" stop-color="#fff" stop-opacity="0"/></radialGradient>
<pattern id="dots" width="36" height="36" patternUnits="userSpaceOnUse"><circle cx="18" cy="18" r="2" fill="#ffffff" fill-opacity="0.12"/></pattern>
</defs>
<rect width="512" height="512" rx="112" fill="url(#bg)"/>
<rect width="512" height="512" rx="112" fill="url(#glow)"/>
<rect width="512" height="512" rx="112" fill="url(#dots)"/>
<rect x="3" y="3" width="506" height="506" rx="109" fill="none" stroke="#fff" stroke-opacity="0.1" stroke-width="6"/>
<g transform="translate(76 76)"><rect x="0" y="0" width="104" height="104" rx="28.1" fill="#fff" fill-opacity="0.1"/><rect x="122" y="0" width="104" height="104" rx="28.1" fill="#fff" fill-opacity="0.1"/><rect x="244" y="0" width="104" height="104" rx="28.1" fill="#fff" fill-opacity="0.1"/><rect x="0" y="122" width="104" height="104" rx="28.1" fill="#fff" fill-opacity="0.1"/><rect x="122" y="122" width="104" height="104" rx="28.1" fill="#fff" fill-opacity="0.1"/><rect x="244" y="122" width="104" height="104" rx="28.1" fill="#fff" fill-opacity="0.1"/><rect x="0" y="244" width="104" height="104" rx="28.1" fill="#fff" fill-opacity="0.1"/><rect x="122" y="244" width="104" height="104" rx="28.1" fill="#fff" fill-opacity="0.1"/><rect x="244" y="244" width="104" height="104" rx="28.1" fill="#fff" fill-opacity="0.1"/><g><rect x="0" y="132.4" width="104" height="104" rx="28.1" fill="#6f7f93"/><rect x="0" y="122" width="104" height="104" rx="28.1" fill="#bfdbfe"/><rect x="10.4" y="129.3" width="83.2" height="31.2" rx="15.6" fill="#fff" fill-opacity="0.22"/></g><g><rect x="122" y="132.4" width="104" height="104" rx="28.1" fill="#925523"/><rect x="122" y="122" width="104" height="104" rx="28.1" fill="#fb923c"/><rect x="132.4" y="129.3" width="83.2" height="31.2" rx="15.6" fill="#fff" fill-opacity="0.22"/></g><path d="M153.2 153.2L194.8 194.8M194.8 153.2L153.2 194.8" stroke="#fff" stroke-width="11.4" stroke-linecap="round"/><circle cx="296" cy="52" r="18.7" fill="none" stroke="#fff" stroke-opacity="0.55" stroke-width="7.3"/><g stroke="#fde047" stroke-width="8.3" stroke-linecap="round" fill="none"><circle cx="296" cy="296" r="74.9"/><path d="M296 195.1V241.9M296 350.1V396.9M195.1 296H241.9M350.1 296H396.9"/></g></g>
</svg>
