<svg xmlns="http://www.w3.org/2000/svg" viewBox="0 0 512 512" width="512" height="512" role="img" aria-label="ScribbleBot">
<title>ScribbleBot</title>
<defs>
<linearGradient id="bg" x1="0" y1="0" x2="1" y2="1"><stop offset="0" stop-color="#24a955"/><stop offset="1" stop-color="#0b5a2a"/></linearGradient>
<radialGradient id="glow" cx="0.72" cy="0.42" r="0.55"><stop offset="0" stop-color="#fff" stop-opacity="0.2"/><stop offset="1" stop-color="#fff" stop-opacity="0"/></radialGradient>
<pattern id="dots" width="36" height="36" patternUnits="userSpaceOnUse"><circle cx="18" cy="18" r="2" fill="#ffffff" fill-opacity="0.12"/></pattern>
</defs>
<rect width="512" height="512" rx="112" fill="url(#bg)"/>
<rect width="512" height="512" rx="112" fill="url(#glow)"/>
<rect width="512" height="512" rx="112" fill="url(#dots)"/>
<rect x="3" y="3" width="506" height="506" rx="109" fill="none" stroke="#fff" stroke-opacity="0.1" stroke-width="6"/>
<g transform="rotate(-5 256 256)"><rect x="86" y="122" width="340" height="290" rx="30" fill="#000" fill-opacity="0.22"/><rect x="86" y="106" width="340" height="290" rx="30" fill="#fffbeb"/><g transform="translate(96 116) scale(0.9)"><path d="M30 252.3L98.2 246.8L179.7 254L258 250.8L330.4 252.6" fill="none" stroke="#09411e" stroke-width="7" stroke-linecap="round" stroke-linejoin="round"/><path d="M90 250.3L90.2 170.8L149.7 112L206 171.8L210.4 250.6" fill="none" stroke="#09411e" stroke-width="7" stroke-linecap="round" stroke-linejoin="round"/><path d="M80 182.3L148.2 104.8L221.7 180" fill="none" stroke="#09411e" stroke-width="7" stroke-linecap="round" stroke-linejoin="round"/><path d="M135 251.3L134.2 203.8L164.7 204L164 251.8" fill="none" stroke="#09411e" stroke-width="7" stroke-linecap="round" stroke-linejoin="round"/><circle cx="280" cy="80" r="26" fill="none" stroke="#09411e" stroke-width="7"/><path d="M317.7 80L329.4 80" stroke="#09411e" stroke-width="6" stroke-linecap="round"/><path d="M306.7 106.7L314.9 114.9" stroke="#09411e" stroke-width="6" stroke-linecap="round"/><path d="M280 117.7L280 129.4" stroke="#09411e" stroke-width="6" stroke-linecap="round"/><path d="M253.3 106.7L245.1 114.9" stroke="#09411e" stroke-width="6" stroke-linecap="round"/><path d="M242.3 80L230.6 80" stroke="#09411e" stroke-width="6" stroke-linecap="round"/><path d="M253.3 53.3L245.1 45.1" stroke="#09411e" stroke-width="6" stroke-linecap="round"/><path d="M280 42.3L280 30.6" stroke="#09411e" stroke-width="6" stroke-linecap="round"/><path d="M306.7 53.3L314.9 45.1" stroke="#09411e" stroke-width="6" stroke-linecap="round"/></g></g><g transform="translate(372 400) rotate(-38)"><rect x="0" y="-10.9" width="120" height="34" rx="10.2" fill="#a16207"/><rect x="0" y="-17" width="120" height="34" rx="10.2" fill="#fde047"/><rect x="6" y="-12.9" width="102" height="7.5" rx="3.4" fill="#fff" fill-opacity="0.35"/><rect x="113.2" y="-17" width="30.6" height="34" rx="10.2" fill="#f9a8d4"/><path d="M0 -17L-37.4 0L0 17Z" fill="#fde7c3"/><path d="M-22.4 -6.8L-37.4 0L-22.4 6.8Z" fill="#1f2937"/></g>
</svg>
